# xmcd
#
# Track frame offsets:
#	150
#	13655
#	25254
#	37811
#	50480
#	63701
#	75645
#	83823
#	96070
#	102152
#	113861
#	126843
#	139257
#	155391
#	165634
#	176206
#	188126
#	200295
#
# Disc length: 2817
#
# Revision: 1
# Processed by: cddbd v1.5.1PL0 Copyright (c) Steve Scherf et al.
# Submitted via: EasyCDDAExtractor 5.0.4.1
# Normalized: r0:DSETVAR1
#
DISCID=eb0aff12
DTITLE=Various Artist - Kings Of Country
DYEAR=1995
DGENRE=Country
TTITLE0=Waylon Jennings - Amanda
TTITLE1=Johnny Cash - Big River
TTITLE2=Doug Kershaw - Diggy Diggy Lo
TTITLE3=Merle Haggard - Rainbow Stew
TTITLE4=Marty Robbins - Devil Woman
TTITLE5=Tennessee Ernie Ford - Sixteen Tons
TTITLE6=Roger Miller - Doo-Wacka-Doo
TTITLE7=Hank Snow - The Golden Rocket
TTITLE8=Hank Locklin - Please Help Me I'm Falling
TTITLE9=Don Gibson - Sea Of Heartbreak
TTITLE10=Johnny Horton - North To Alaska
TTITLE11=George Jones - The Door
TTITLE12=Willie Nelson - Whiskey River
TTITLE13=Conway Twitty - It's Only Make Believe
TTITLE14=Bill Anderson - I Get The Fever
TTITLE15=Ernest Tubb - Walkin' The Floor Over You
TTITLE16=Glen Campbell - Galveston
TTITLE17=Hank Williams - I'll Never Get Out of This World Alive
EXTD=
EXTT0=
EXTT1=
EXTT2=
EXTT3=
EXTT4=
EXTT5=
EXTT6=
EXTT7=
EXTT8=
EXTT9=
EXTT10=
EXTT11=
EXTT12=
EXTT13=
EXTT14=
EXTT15=
EXTT16=
EXTT17=
PLAYORDER=
